<svg aria-hidden="true" style="position: absolute; width: 0; height: 0; overflow: hidden;" version="1.1" xmlns="http://www.w3.org/2000/svg" xmlns:xlink="http://www.w3.org/1999/xlink">
<defs>
<symbol id="burger" viewBox="0 0 45 32">
<path fill="#ebe9ff" style="fill: var(--color1, #ebe9ff)" d="M0 3.2c0-1.767 1.433-3.2 3.2-3.2h38.4c1.767 0 3.2 1.433 3.2 3.2s-1.433 3.2-3.2 3.2h-38.4c-1.767 0-3.2-1.433-3.2-3.2z"></path>
<path fill="#ebe9ff" style="fill: var(--color1, #ebe9ff)" d="M0 16c0-1.767 1.433-3.2 3.2-3.2h38.4c1.767 0 3.2 1.433 3.2 3.2s-1.433 3.2-3.2 3.2h-38.4c-1.767 0-3.2-1.433-3.2-3.2z"></path>
<path fill="#ebe9ff" style="fill: var(--color1, #ebe9ff)" d="M3.2 25.6c-1.767 0-3.2 1.433-3.2 3.2s1.433 3.2 3.2 3.2h38.4c1.767 0 3.2-1.433 3.2-3.2s-1.433-3.2-3.2-3.2h-38.4z"></path>
</symbol>
<symbol id="arrrow" viewBox="0 0 40 32">
<path fill="none" stroke="#130b62" style="stroke: var(--color2, #130b62)" stroke-linejoin="round" stroke-linecap="round" stroke-miterlimit="4" stroke-width="6" d="M3 16h34M37 16l-13-13M37 16l-13 13"></path>
</symbol>
<symbol id="exclamation-mark" viewBox="0 0 36 32">
<path fill="#ebe9ff" style="fill: var(--color1, #ebe9ff)" d="M19.847 11.414c0 0.453-0.009 1.071-0.028 1.854-0.018 0.766-0.046 1.602-0.082 2.507s-0.092 1.802-0.165 2.69c-0.055 0.888-0.119 1.689-0.192 2.403-0.128 0.087-0.33 0.165-0.605 0.235-0.257 0.052-0.495 0.078-0.715 0.078-0.367 0-0.688-0.061-0.963-0.183-0.257-0.139-0.413-0.374-0.468-0.705-0.055-0.453-0.11-1.088-0.165-1.907s-0.101-1.715-0.138-2.69c-0.037-0.993-0.064-1.959-0.082-2.899s-0.027-1.767-0.027-2.481c0.587-0.313 1.228-0.47 1.925-0.47 0.55 0 0.972 0.131 1.265 0.392 0.293 0.244 0.44 0.636 0.44 1.175zM16.024 24.734c0-0.557 0.183-1.019 0.55-1.384s0.871-0.549 1.513-0.549 1.146 0.183 1.513 0.549c0.367 0.366 0.55 0.827 0.55 1.384s-0.183 1.019-0.55 1.384c-0.367 0.366-0.871 0.549-1.513 0.549s-1.146-0.183-1.513-0.549c-0.367-0.366-0.55-0.827-0.55-1.384z"></path>
<path fill="#ebe9ff" style="fill: var(--color1, #ebe9ff)" d="M33.71 25.351c1.282 2.215-0.317 4.987-2.876 4.987h-25.495c-2.559 0-4.158-2.772-2.876-4.987l12.748-22.031c1.28-2.212 4.472-2.212 5.752 0l12.748 22.031zM22.401 2.488c-1.919-3.317-6.708-3.317-8.628 0l-12.748 22.031c-1.923 3.323 0.475 7.481 4.314 7.481h25.495c3.839 0 6.237-4.158 4.314-7.481l-12.748-22.031z"></path>
</symbol>
<symbol id="google-playstore" viewBox="0 0 32 32">
<path fill="#130b62" style="fill: var(--color2, #130b62)" d="M3 3.718v24.563c0 0.053 0.016 0.105 0.046 0.15s0.072 0.079 0.121 0.099 0.103 0.026 0.156 0.016c0.052-0.010 0.1-0.035 0.138-0.073l12.789-12.473-12.789-12.474c-0.038-0.037-0.086-0.063-0.138-0.073s-0.106-0.005-0.156 0.016c-0.049 0.021-0.091 0.055-0.121 0.099s-0.046 0.096-0.046 0.15zM21.613 10.875l-16.046-8.841c-0.276-0.15-0.539 0.224-0.313 0.441l12.571 12.020 3.788-3.621zM5.255 29.525c-0.228 0.218 0.035 0.591 0.313 0.441l0.010-0.006 16.035-8.835-3.788-3.622-12.569 12.021zM28.086 14.438l-4.478-2.466-4.211 4.029 4.211 4.027 4.478-2.464c1.218-0.673 1.218-2.452 0-3.125z"></path>
</symbol>
</defs>
</svg>
