<?xml version="1.0" standalone="no"?>
<!DOCTYPE svg PUBLIC "-//W3C//DTD SVG 20010904//EN"
 "http://www.w3.org/TR/2001/REC-SVG-20010904/DTD/svg10.dtd">
<svg version="1.0" xmlns="http://www.w3.org/2000/svg"
 width="500.000000pt" height="500.000000pt" viewBox="0 0 500.000000 500.000000"
 preserveAspectRatio="xMidYMid meet">
<metadata>
Created by potrace 1.14, written by Peter Selinger 2001-2017
</metadata>
<g transform="translate(0.000000,500.000000) scale(0.100000,-0.100000)"
fill="#000000" stroke="none">
<path d="M2420 4784 c-14 -2 -59 -9 -100 -15 -41 -6 -118 -25 -170 -41 -362
-114 -666 -373 -850 -723 l-42 -80 -102 -18 c-580 -103 -1022 -544 -1132
-1132 -27 -144 -25 -396 3 -520 86 -369 306 -657 635 -829 l75 -40 17 -89 c91
-473 396 -826 838 -971 96 -31 281 -69 453 -92 159 -21 549 -24 700 -5 408 51
835 199 1117 387 188 125 350 304 447 494 96 187 138 356 148 597 l6 153 56
42 c31 23 90 76 131 118 335 339 437 842 269 1333 -184 539 -660 876 -1222
866 l-128 -2 -63 79 c-245 309 -570 478 -941 489 -66 2 -131 2 -145 -1z"/>
</g>
</svg>
